Coordinates
version=1
nRows=26
nColumns=22
inDegrees=yes

Units are S.I. units (second, meters, Newtons, ...)
If the header above contains a line with 'inDegrees', this indicates whether rotational values are in degrees (yes) or radians (no).

endheader
time	pelvis_tilt	pelvis_list	pelvis_rotation	pelvis_tx	pelvis_ty	pelvis_tz	hip_flexion_r	hip_adduction_r	hip_rotation_r	knee_angle_r	ankle_angle_r	subtalar_angle_r	hip_flexion_l	hip_adduction_l	hip_rotation_l	knee_angle_l	ankle_angle_l	subtalar_angle_l	lumbar_extension	lumbar_bending	lumbar_rotation
      0.01000000	     -1.68385066	      2.67296086	    174.35845914	      0.31765122	      0.92946288	      1.01358353	     -4.46024358	     -3.12056572	      1.51002192	     -3.60389895	      3.61266828	      9.41326157	     -4.76772244	    -10.12768195	    -12.82006193	     -6.40394920	      6.74642109	     12.77518945	     -5.29171244	     -1.34656907	      1.11870492
      0.02000000	     -1.69700797	      2.67855756	    174.33215281	      0.31777523	      0.92947707	      1.01374855	     -4.44364366	     -3.12850260	      1.51920557	     -3.63591509	      3.59446213	      9.40565341	     -4.76385781	    -10.12362069	    -12.83188916	     -6.43774776	      6.76851257	     12.78348596	     -5.31863394	     -1.34820709	      1.11728511
      0.03000000	     -1.69424506	      2.69490510	    174.28998468	      0.31792506	      0.92946622	      1.01391619	     -4.41687932	     -3.12556723	      1.55755344	     -3.64625438	      3.57765384	      9.38066323	     -4.73698840	    -10.13260795	    -12.88644900	     -6.49051038	      6.82743062	     12.79731286	     -5.32927119	     -1.34003189	      1.13715131
      0.04000000	     -1.70008953	      2.70442737	    174.26005962	      0.31808281	      0.92947591	      1.01412848	     -4.39623937	     -3.13197133	      1.57736297	     -3.66470381	      3.56382610	      9.37547038	     -4.72996827	    -10.12769103	    -12.88065481	     -6.51195898	      6.83336705	     12.79852112	     -5.34818503	     -1.33967976	      1.12711153
      0.05000000	     -1.68401034	      2.71487266	    174.20705015	      0.31828586	      0.92945758	      1.01431398	     -4.34537123	     -3.13680856	      1.63452284	     -3.68284173	      3.53382189	      9.35493224	     -4.69105365	    -10.12718625	    -12.93844039	     -6.55663614	      6.87388354	     12.79653453	     -5.34740517	     -1.34239710	      1.15460193
      0.06000000	     -1.68482176	      2.72350970	    174.17520228	      0.31848428	      0.92946804	      1.01453779	     -4.31417026	     -3.14458154	      1.66034157	     -3.70548045	      3.51919948	      9.35060573	     -4.67988741	    -10.11939012	    -12.94416790	     -6.56977842	      6.87965382	     12.79401559	     -5.36646150	     -1.34632353	      1.14377138
      0.07000000	     -1.67880328	      2.72540770	    174.13081750	      0.31868545	      0.92947327	      1.01474475	     -4.27105270	     -3.15967292	      1.69948025	     -3.73109663	      3.49350403	      9.34550533	     -4.66332637	    -10.10418578	    -12.97739130	     -6.58442931	      6.89173198	     12.78625034	     -5.37536781	     -1.35743735	      1.15448626
      0.08000000	     -1.66273653	      2.72466941	    174.07666229	      0.31886747	      0.92946832	      1.01492993	     -4.21906710	     -3.17659277	      1.75031147	     -3.75216276	      3.47271881	      9.34163965	     -4.64533412	    -10.08568179	    -13.02989298	     -6.58839578	      6.89832417	     12.76973126	     -5.36761786	     -1.36977718	      1.18503307
      0.09000000	     -1.64837843	      2.72387347	    174.02804707	      0.31903763	      0.92946806	      1.01511122	     -4.17098508	     -3.19262534	      1.79654737	     -3.77332214	      3.45967629	      9.33909835	     -4.63109614	    -10.06742258	    -13.07030666	     -6.58689676	      6.89737622	     12.74965164	     -5.35968990	     -1.38060291	      1.21907386
      0.10000000	     -1.64877441	      2.73230651	    174.01606053	      0.31917337	      0.92948517	      1.01532396	     -4.16105651	     -3.19675789	      1.79606488	     -3.76733137	      3.45938754	      9.33885876	     -4.62659377	    -10.06113404	    -13.07171550	     -6.58434999	      6.89751677	     12.74863975	     -5.36766829	     -1.37936172	      1.21908353
      0.11000000	     -1.62210259	      2.71799189	    173.94088870	      0.31930701	      0.92947221	      1.01543864	     -4.09184159	     -3.22534181	      1.87547169	     -3.79954595	      3.44246245	      9.33067252	     -4.61591025	    -10.02713056	    -13.15426930	     -6.56502317	      6.88524475	     12.70748199	     -5.33434528	     -1.40497387	      1.30564706
      0.12000000	     -1.62379570	      2.72503039	    173.93327490	      0.31942767	      0.92948927	      1.01561304	     -4.08278226	     -3.22747256	      1.87652172	     -3.79829429	      3.44096524	      9.33009920	     -4.61230825	    -10.02248167	    -13.15509398	     -6.56265153	      6.88612723	     12.70620292	     -5.34106146	     -1.40664239	      1.30690573
      0.13000000	     -1.62154207	      2.72146674	    173.89502625	      0.31956481	      0.92950131	      1.01572923	     -4.03995050	     -3.24026367	      1.90336397	     -3.84354643	      3.41234704	      9.32101679	     -4.61311690	    -10.00427924	    -13.17459105	     -6.55744003	      6.89423379	     12.68955660	     -5.34049726	     -1.42430811	      1.36727976
      0.14000000	     -1.60394919	      2.72083639	    173.85673049	      0.31966208	      0.92948533	      1.01580923	     -4.00688532	     -3.24658856	      1.93850416	     -3.84261408	      3.42232818	      9.30735484	     -4.59868842	     -9.99397553	    -13.22973431	     -6.55248448	      6.89135939	     12.66214578	     -5.31413126	     -1.44077933	      1.43442505
      0.15000000	     -1.60713734	      2.72738771	    173.85104008	      0.31978247	      0.92949334	      1.01591072	     -3.99874389	     -3.24416825	      1.94157279	     -3.84469034	      3.42051313	      9.30601120	     -4.59481252	     -9.99355043	    -13.22936750	     -6.55308758	      6.89305458	     12.66055796	     -5.32060586	     -1.45153794	      1.43688933
      0.16000000	     -1.60601207	      2.72325705	    173.81508044	      0.31992078	      0.92949214	      1.01596792	     -3.96179017	     -3.25361692	      1.97456636	     -3.88228565	      3.41147839	      9.28065425	     -4.58440844	     -9.98094836	    -13.26570709	     -6.57133783	      6.92107132	     12.63543565	     -5.31838738	     -1.47638459	      1.50196077
      0.17000000	     -1.61309354	      2.72849100	    173.81234489	      0.32004267	      0.92950054	      1.01604872	     -3.95981017	     -3.25149442	      1.97587320	     -3.88134534	      3.41191480	      9.27556136	     -4.57591521	     -9.98140642	    -13.25697062	     -6.58841423	      6.92318534	     12.63157803	     -5.32611373	     -1.49312349	      1.53428654
      0.18000000	     -1.62396526	      2.73145776	    173.80621599	      0.32015842	      0.92951217	      1.01612280	     -3.95925280	     -3.25257177	      1.97597554	     -3.88542049	      3.40793575	      9.26880293	     -4.57281090	     -9.97837336	    -13.25232447	     -6.60573838	      6.93464446	     12.62800577	     -5.33604344	     -1.51343621	      1.57020241
      0.19000000	     -1.63894044	      2.73383378	    173.80044446	      0.32026831	      0.92952654	      1.01619712	     -3.96409574	     -3.25574760	      1.97538924	     -3.88852984	      3.40395316	      9.26140542	     -4.57359444	     -9.97492413	    -13.24987645	     -6.62438055	      6.94964980	     12.62403335	     -5.34828058	     -1.53408830	      1.61140115
      0.20000000	     -1.65784047	      2.73681041	    173.79471417	      0.32036753	      0.92954507	      1.01627318	     -3.97480872	     -3.25860683	      1.97506460	     -3.89018918	      3.40045171	      9.25403288	     -4.57996191	     -9.97066672	    -13.25008111	     -6.64223902	      6.96579457	     12.61909572	     -5.36328082	     -1.55275250	      1.65331369
      0.21000000	     -1.68163503	      2.74049511	    173.78995245	      0.32045882	      0.92956870	      1.01634819	     -3.99223937	     -3.26174168	      1.97481657	     -3.89080368	      3.39700442	      9.24724533	     -4.59228182	     -9.96729546	    -13.25142577	     -6.65921820	      6.98170574	     12.61298299	     -5.38183989	     -1.56906878	      1.69769395
      0.22000000	     -1.71367470	      2.74476566	    173.78519502	      0.32053591	      0.92960301	      1.01642407	     -4.02010228	     -3.26572295	      1.97524870	     -3.89090612	      3.39300083	      9.24050216	     -4.61515956	     -9.96332910	    -13.25536761	     -6.67542143	      6.99863329	     12.60440514	     -5.40727028	     -1.58205240	      1.74640594
      0.23000000	     -1.75877214	      2.75038144	    173.77970334	      0.32059652	      0.92965899	      1.01650324	     -4.06504159	     -3.27023728	      1.97828145	     -3.88777884	      3.38851655	      9.23355040	     -4.65682201	     -9.95771945	    -13.26544279	     -6.68558711	      7.01497639	     12.59052814	     -5.44662602	     -1.58955204	      1.79487478
      0.24000000	     -1.76851964	      2.75404855	    173.78454954	      0.32064761	      0.92966717	      1.01658717	     -4.07112855	     -3.27216889	      1.98001870	     -3.89119893	      3.38781397	      9.23324621	     -4.66072392	     -9.95547321	    -13.26585835	     -6.68750989	      7.01499580	     12.58961975	     -5.43939163	     -1.58874213	      1.79859999
      0.25000000	     -1.86418637	      2.76144889	    173.78048886	      0.32069104	      0.92979501	      1.01665218	     -4.17736034	     -3.28054118	      1.98111194	     -3.87638077	      3.37509075	      9.22907488	     -4.76812472	     -9.94472040	    -13.28676642	     -6.67819064	      7.03189711	     12.55431913	     -5.53757268	     -1.59564022	      1.84856105
      0.26000000	     -1.87353064	      2.76366987	    173.78947741	      0.32074138	      0.92980784	      1.01671975	     -4.18374239	     -3.28224064	      1.98272423	     -3.87993766	      3.37457941	      9.22911339	     -4.76926919	     -9.94282959	    -13.28364628	     -6.68273223	      7.02955605	     12.55365924	     -5.52789819	     -1.59421928	      1.85719003
